<?xml version="1.0" standalone="no"?>
<!DOCTYPE svg PUBLIC "-//W3C//DTD SVG 20010904//EN"
 "http://www.w3.org/TR/2001/REC-SVG-20010904/DTD/svg10.dtd">
<svg version="1.0" xmlns="http://www.w3.org/2000/svg"
 width="1200.000000pt" height="1200.000000pt" viewBox="0 0 1200.000000 1200.000000"
 preserveAspectRatio="xMidYMid meet">
<metadata>
Created by potrace 1.11, written by Peter Selinger 2001-2013
</metadata>
<g transform="translate(0.000000,1200.000000) scale(0.100000,-0.100000)"
fill="#000000" stroke="none">
<path d="M1010 9510 l0 -1520 5015 0 5015 0 0 1520 0 1520 -5015 0 -5015 0 0
-1520z"/>
<path d="M1010 5990 l0 -1000 2505 0 2505 0 0 1000 0 1000 -2505 0 -2505 0 0
-1000z"/>
<path d="M1010 2490 l0 -1500 5000 0 5000 0 0 1500 0 1500 -5000 0 -5000 0 0
-1500z"/>
</g>
</svg>
